<svg width="18" height="18" viewBox="0 0 18 18" fill="none" xmlns="http://www.w3.org/2000/svg">
<path d="M9 8.70968C9.48101 8.70968 9.87097 8.31972 9.87097 7.83871C9.87097 7.3577 9.48101 6.96774 9 6.96774V8.70968ZM0.870968 6.96774C0.38995 6.96774 0 7.3577 0 7.83871C0 8.31972 0.38995 8.70968 0.870968 8.70968V6.96774ZM9 6.96774C8.51899 6.96774 8.12903 7.3577 8.12903 7.83871C8.12903 8.31972 8.51899 8.70968 9 8.70968V6.96774ZM17.129 8.70968C17.61 8.70968 18 8.31972 18 7.83871C18 7.3577 17.61 6.96774 17.129 6.96774V8.70968ZM8.12903 7.83871C8.12903 8.31972 8.51899 8.70968 9 8.70968C9.48101 8.70968 9.87097 8.31972 9.87097 7.83871H8.12903ZM9.87097 0.870968C9.87097 0.38995 9.48101 0 9 0C8.51899 0 8.12903 0.38995 8.12903 0.870968H9.87097ZM1.74194 7.83871C1.74194 7.3577 1.35199 6.96774 0.870968 6.96774C0.38995 6.96774 0 7.3577 0 7.83871H1.74194ZM18 7.83871C18 7.3577 17.61 6.96774 17.129 6.96774C16.648 6.96774 16.2581 7.3577 16.2581 7.83871H18ZM0 7.83871C0 8.31972 0.38995 8.70968 0.870968 8.70968C1.35199 8.70968 1.74194 8.31972 1.74194 7.83871H0ZM9 1.74194C9.48101 1.74194 9.87097 1.35199 9.87097 0.870968C9.87097 0.38995 9.48101 0 9 0V1.74194ZM16.2581 7.83871C16.2581 8.31972 16.648 8.70968 17.129 8.70968C17.61 8.70968 18 8.31972 18 7.83871H16.2581ZM9 0C8.51899 0 8.12903 0.38995 8.12903 0.870968C8.12903 1.35199 8.51899 1.74194 9 1.74194V0ZM9 6.96774H0.870968V8.70968H9V6.96774ZM9 8.70968H17.129V6.96774H9V8.70968ZM9.87097 7.83871V0.870968H8.12903V7.83871H9.87097ZM0 7.83871V12.4839H1.74194V7.83871H0ZM0 12.4839C0 15.5304 2.46966 18 5.51613 18V16.2581C3.43169 16.2581 1.74194 14.5683 1.74194 12.4839H0ZM5.51613 18H12.4839V16.2581H5.51613V18ZM12.4839 18C15.5304 18 18 15.5304 18 12.4839H16.2581C16.2581 14.5683 14.5683 16.2581 12.4839 16.2581V18ZM18 12.4839V7.83871H16.2581V12.4839H18ZM1.74194 7.83871V5.51613H0V7.83871H1.74194ZM1.74194 5.51613C1.74194 3.43169 3.43169 1.74194 5.51613 1.74194V0C2.46966 0 0 2.46966 0 5.51613H1.74194ZM5.51613 1.74194H9V0H5.51613V1.74194ZM18 7.83871V5.51613H16.2581V7.83871H18ZM18 5.51613C18 2.46966 15.5304 0 12.4839 0V1.74194C14.5683 1.74194 16.2581 3.43169 16.2581 5.51613H18ZM12.4839 0H9V1.74194H12.4839V0Z" fill="white"/>
</svg>
