<svg width="18" height="18" viewBox="0 0 18 18" fill="none" xmlns="http://www.w3.org/2000/svg">
<g clip-path="url(#clip0_150_72)">
<path d="M4.85443 2.1893L5.34258 2.40229C5.00397 2.60962 4.85118 2.81236 4.88983 3.00542C4.92959 3.2049 5.11193 3.37688 5.43229 3.51676C5.72737 3.64558 6.07504 3.71531 6.49532 3.72999C6.90975 3.74434 7.54907 3.62779 8.39623 3.38325C8.60667 3.32234 8.77163 3.2869 8.88619 3.27807C8.99834 3.26924 9.08874 3.28183 9.17087 3.31779C9.22741 3.34246 9.39976 3.41753 8.96665 3.6067C8.68532 3.72948 8.394 3.78002 8.10096 3.75698C7.8691 3.73891 7.63432 3.78165 7.50099 3.86643L7.2407 4.03195C7.12693 4.10423 7.10389 4.19668 7.17891 4.27797C7.2538 4.35927 7.41728 4.41864 7.61392 4.43629C8.25668 4.49399 8.89112 4.41999 9.50066 4.2174L10.1596 4.50509C10.3938 4.6073 10.7731 4.6073 11.0072 4.50533C11.2412 4.40308 11.2412 4.23742 11.0072 4.13526L10.3253 3.83758C10.6248 3.6473 10.7824 3.45497 10.7934 3.26474C10.8066 3.04217 10.6268 2.84789 10.2592 2.68739C9.99685 2.57283 9.69758 2.50194 9.37026 2.47676C9.04289 2.45135 8.73257 2.46552 8.44849 2.5188C8.16823 2.57148 7.74167 2.67777 7.18328 2.83405C6.94027 2.90136 6.77545 2.93569 6.69285 2.93621C6.61392 2.93662 6.54317 2.92413 6.48836 2.90011C6.2938 2.81538 6.45728 2.7082 6.62865 2.63341C6.84142 2.54055 7.06844 2.49669 7.30327 2.50287C7.53871 2.5091 7.76077 2.45414 7.86998 2.36299L8.02096 2.23705C8.11648 2.15743 8.11137 2.06192 8.00763 1.98415C7.90399 1.90652 7.71608 1.85747 7.51019 1.8544C7.06333 1.84799 6.63237 1.90773 6.19875 2.03618L5.70196 1.81937C5.46782 1.71717 5.08842 1.71717 4.85434 1.81937C4.62048 1.92148 4.62048 2.08714 4.85443 2.1893Z" fill="white"/>
<path d="M15.1644 4.83191C15.2041 4.66695 15.2244 4.49892 15.2244 4.32861V3.79029C15.2244 2.71466 14.4214 1.73116 12.9631 1.021C11.6112 0.362584 9.82409 0 7.93094 0C6.03779 0 4.2507 0.362584 2.89876 1.021C1.44052 1.73116 0.637451 2.71466 0.637451 3.79029V4.32861C0.637451 5.38933 1.41883 6.36025 2.83883 7.06799C2.79944 7.23217 2.77402 7.43675 2.77402 7.56887V7.66708C1.39486 8.37195 0.637451 9.32953 0.637451 10.374V10.9124C0.637451 11.6377 1.0031 12.3209 1.68808 12.907C1.59541 13.1547 1.54709 13.4102 1.54709 13.6714V14.2097C1.54709 15.2853 2.35017 16.2688 3.8084 16.979C5.16034 17.6374 6.94743 18 8.84058 18C10.7337 18 12.5209 17.6374 13.8728 16.979C15.331 16.2688 16.1341 15.2853 16.1341 14.2097V13.6714C16.1341 12.9462 15.7687 12.263 15.084 11.6771C15.1766 11.4294 15.2244 11.1736 15.2244 10.9124V10.8142C16.6035 10.1093 17.361 9.1517 17.361 8.10715V7.56883C17.361 6.50937 16.5814 5.53947 15.1644 4.83191ZM1.65673 3.33475C1.86796 2.79768 2.44331 2.27622 3.30557 1.85631C4.53329 1.25838 6.17595 0.929107 7.93094 0.929107C9.68593 0.929107 11.3286 1.25838 12.5563 1.85631C13.4186 2.27622 13.9939 2.79773 14.2051 3.33475C13.4589 4.6328 10.8661 5.57929 7.93089 5.57929C4.99566 5.57929 2.40294 4.63285 1.65673 3.33475ZM1.65673 9.91854C1.82847 9.4819 2.24211 9.05591 2.85383 8.68608C3.0895 9.53291 3.84347 10.296 5.03538 10.8765C6.38732 11.5349 8.17441 11.8975 10.0676 11.8975C10.2526 11.8975 10.4363 11.893 10.619 11.8862C9.79254 12.0639 8.87983 12.1631 7.93098 12.1631C4.99575 12.1631 2.40294 11.2166 1.65673 9.91854ZM15.1148 13.2158C14.3686 14.5139 11.7758 15.4604 8.84058 15.4604C6.29074 15.4604 4.00072 14.7458 2.95385 13.7072C4.29915 14.349 6.06302 14.7026 7.93094 14.7026C9.82409 14.7026 11.6112 14.3401 12.9631 13.6817C13.6636 13.3405 14.2124 12.9362 14.5941 12.489C14.8405 12.7223 15.0171 12.9673 15.1148 13.2158ZM10.0675 9.35791C7.50476 9.35791 5.20322 8.63637 4.1636 7.58931C5.28628 7.93373 6.58118 8.11891 7.93094 8.11891C9.82409 8.11891 11.6112 7.75632 12.9631 7.09796C13.7818 6.69928 14.3938 6.21442 14.7733 5.67554C15.5905 6.0883 16.1372 6.59336 16.3418 7.11338C15.5956 8.41139 13.0027 9.35791 10.0675 9.35791Z" fill="white"/>
</g>
<defs>
<clipPath id="clip0_150_72">
<rect width="18" height="18" fill="white"/>
</clipPath>
</defs>
</svg>
