<svg width="43" height="31" viewBox="0 0 43 31" fill="none" xmlns="http://www.w3.org/2000/svg">
<path d="M18.986 25.3387C19.1483 25.3389 19.3089 25.3711 19.4588 25.4334C19.6086 25.4958 19.7447 25.587 19.8593 25.7019C19.9738 25.8168 20.0647 25.9531 20.1265 26.1031C20.1884 26.2531 20.2202 26.4139 20.2199 26.5761C20.2197 26.7384 20.1875 26.899 20.1252 27.0489C20.0629 27.1987 19.9717 27.3348 19.8568 27.4494C19.7419 27.5639 19.6055 27.6548 19.4555 27.7167C19.3055 27.7785 19.1448 27.8103 18.9825 27.81C18.6548 27.8096 18.3407 27.6789 18.1093 27.4469C17.8779 27.2148 17.7481 26.9003 17.7486 26.5726C17.7491 26.2449 17.8797 25.9308 18.1118 25.6994C18.3438 25.468 18.6583 25.3382 18.986 25.3387ZM38.3629 17.698C38.2007 17.6979 38.04 17.6658 37.8901 17.6036C37.7403 17.5414 37.6041 17.4503 37.4894 17.3354C37.3748 17.2206 37.2839 17.0843 37.2219 16.9344C37.1599 16.7844 37.128 16.6237 37.1281 16.4614C37.1283 16.2992 37.1603 16.1385 37.2225 15.9886C37.2847 15.8388 37.3759 15.7026 37.4907 15.5879C37.6055 15.4733 37.7418 15.3824 37.8918 15.3204C38.0417 15.2584 38.2024 15.2265 38.3647 15.2267C38.6924 15.2269 39.0066 15.3573 39.2382 15.5892C39.4697 15.8211 39.5997 16.1355 39.5995 16.4632C39.5992 16.7909 39.4688 17.1051 39.2369 17.3367C39.005 17.5682 38.6906 17.6982 38.3629 17.698ZM38.3629 12.6428C37.3498 12.6438 36.3783 13.0467 35.6619 13.7631C34.9455 14.4795 34.5426 15.4509 34.5417 16.4641C34.5417 16.8736 34.6102 17.2814 34.7438 17.6786L22.1218 24.3983C21.7718 23.8902 21.3035 23.4747 20.7572 23.1878C20.2109 22.9009 19.6031 22.7511 18.986 22.7514C17.5289 22.7514 16.2018 23.5863 15.5585 24.8887L4.21957 18.909C3.02081 18.2798 2.12439 16.3076 2.2193 14.5113C2.26852 13.5744 2.59193 12.8467 3.08585 12.5655C3.39872 12.3897 3.77487 12.4038 4.17562 12.6129L4.24945 12.6534C7.25512 14.2353 17.0877 19.4153 17.5025 19.6068C18.1406 19.9039 18.4956 20.0234 19.5854 19.5067L39.9115 8.93583C40.2103 8.82334 40.5583 8.53684 40.5583 8.10268C40.5583 7.50155 39.9361 7.26426 39.9343 7.26426C38.7777 6.71058 37.0007 5.87919 35.2676 5.06713C31.5624 3.33228 27.3632 1.36717 25.5194 0.400434C23.9269 -0.432717 22.6456 0.270364 22.4171 0.41098L21.9741 0.630693C13.6742 4.73493 2.56557 10.2365 1.9328 10.6215C0.802594 11.3105 0.101271 12.6833 0.00987021 14.3865C-0.130746 17.0881 1.24553 19.9057 3.21592 20.9374L15.207 27.121C15.3391 28.0294 15.7935 28.8598 16.4874 29.4607C17.1812 30.0617 18.0681 30.3929 18.986 30.3939C19.9885 30.3922 20.9503 29.9971 21.6645 29.2937C22.3788 28.5903 22.7885 27.6347 22.8055 26.6324L36.0129 19.4733C36.6808 19.9971 37.5122 20.2836 38.3629 20.2836C39.3761 20.2826 40.3475 19.8797 41.0639 19.1633C41.7803 18.4469 42.1832 17.4755 42.1842 16.4623C42.1832 15.4491 41.7803 14.4777 41.0639 13.7613C40.3475 13.0449 39.3761 12.642 38.3629 12.6411" fill="white"/>
</svg>
