<svg width="18" height="18" viewBox="0 0 18 18" fill="none" xmlns="http://www.w3.org/2000/svg">
<path fill-rule="evenodd" clip-rule="evenodd" d="M15.5227 13.4038C14.4456 13.0455 13.2874 12.7778 12.0684 12.6045C12.2344 11.6297 12.3227 10.6082 12.3508 9.5625H16.8536C16.7529 10.9806 16.2765 12.2929 15.5227 13.4038ZM10.9316 16.6269C11.3063 15.7219 11.6128 14.7437 11.8485 13.7132C12.8599 13.8628 13.8296 14.0839 14.7482 14.3741C13.7334 15.4558 12.4161 16.2518 10.9316 16.6269ZM9.54618 16.8474C9.36506 16.8604 9.1845 16.875 9 16.875C8.8155 16.875 8.6355 16.8604 8.45382 16.8474C7.97513 15.8507 7.58756 14.7414 7.30069 13.5641C7.85981 13.5152 8.42625 13.4865 9 13.4865C9.57375 13.4865 10.1402 13.5152 10.6999 13.5641C10.4124 14.7414 10.0249 15.8507 9.54618 16.8474ZM3.25182 14.3741C4.17038 14.0839 5.14013 13.8628 6.1515 13.7132C6.38719 14.7437 6.69375 15.7219 7.06837 16.6269C5.58393 16.2518 4.26713 15.4558 3.25182 14.3741ZM2.47725 13.4038C1.7235 12.2929 1.24706 10.9806 1.14637 9.5625H5.64919C5.67731 10.6082 5.76562 11.6297 5.93156 12.6045C4.71262 12.7778 3.55444 13.0455 2.47725 13.4038ZM2.47725 4.5962C3.55444 4.95451 4.71262 5.2228 5.93156 5.39549C5.76562 6.3703 5.67731 7.39181 5.64919 8.4375H1.14637C1.24706 7.01944 1.7235 5.70714 2.47725 4.5962ZM7.06837 1.37305C6.69375 2.27811 6.38719 3.2563 6.1515 4.2868C5.14013 4.13773 4.17038 3.91612 3.25182 3.62587C4.26713 2.54418 5.58393 1.74824 7.06837 1.37305ZM8.45382 1.15257C8.6355 1.14019 8.8155 1.125 9 1.125C9.1845 1.125 9.36506 1.14019 9.54618 1.15257C10.0249 2.14932 10.4124 3.25912 10.6999 4.43587C10.1402 4.4848 9.57375 4.51349 9 4.51349C8.42625 4.51349 7.85981 4.4848 7.30069 4.43587C7.58756 3.25912 7.97513 2.14932 8.45382 1.15257ZM11.2241 9.5625C11.1937 10.5531 11.1037 11.5273 10.9344 12.4628C10.3011 12.4076 9.657 12.375 9 12.375C8.343 12.375 7.69894 12.4076 7.06612 12.4628C6.89625 11.5273 6.80625 10.5531 6.77644 9.5625H11.2241ZM6.77644 8.4375C6.80625 7.44694 6.89625 6.47268 7.06612 5.53725C7.69894 5.59237 8.343 5.625 9 5.625C9.657 5.625 10.3011 5.59237 10.9339 5.53725C11.1038 6.47268 11.1937 7.44694 11.2241 8.4375H6.77644ZM14.7482 3.62587C13.8296 3.91612 12.8599 4.13773 11.8485 4.2868C11.6128 3.2563 11.3063 2.27811 10.9316 1.37305C12.4161 1.74824 13.7334 2.54418 14.7482 3.62587ZM15.5227 4.5962C16.2765 5.70714 16.7529 7.01944 16.8536 8.4375H12.3508C12.3227 7.39181 12.2344 6.3703 12.0684 5.39549C13.2874 5.2228 14.4456 4.95451 15.5227 4.5962ZM9 0C4.02975 0 0 4.02919 0 9C0 13.9708 4.02975 18 9 18C13.9703 18 18 13.9708 18 9C18 4.02919 13.9703 0 9 0Z" fill="white"/>
</svg>
