<svg width="49" height="56" viewBox="0 0 49 56" fill="none" xmlns="http://www.w3.org/2000/svg">
<path fill-rule="evenodd" clip-rule="evenodd" d="M23.6096 0.212601C23.0282 0.56793 21.3405 1.5568 20.7941 1.86226C19.9093 2.35687 16.4972 4.32221 12.0603 6.89271C7.51074 9.52837 5.43209 10.7305 4.62847 11.1906C4.17534 11.45 2.94847 12.1536 1.90225 12.754L0 13.8458L0.0256294 27.786L0.0512554 41.7261L2.40709 43.079C4.49148 44.276 17.6403 51.8665 22.2164 54.5146C24.3154 55.729 23.5959 55.8689 27.8258 53.4246C29.8049 52.281 32.51 50.721 33.8373 49.9579C35.1647 49.1949 36.6643 48.3288 37.17 48.0336C37.6756 47.7383 38.8392 47.0656 39.7557 46.5387C40.6721 46.0118 42.0167 45.236 42.7435 44.8145C43.4704 44.3931 44.9557 43.5359 46.0442 42.9096L47.7425 41.9435C47.7425 41.9435 41.0328 37.5765 40.986 37.5765C40.9408 37.5765 39.4553 38.4294 30.6196 43.5286C29.3555 44.2582 27.942 45.079 27.4786 45.3528C27.0151 45.6266 26.6192 45.8506 26.5986 45.8506C26.5782 45.8506 26.032 46.1649 25.385 46.5492L24.2084 47.2478L23.9924 47.1913C23.8736 47.1602 22.1875 46.218 20.2455 45.0974C18.3034 43.977 15.6802 42.4644 14.4161 41.7364C13.152 41.0083 11.8074 40.2244 11.4282 39.9945C11.049 39.7644 9.92426 39.1163 8.92872 38.5541L7.11875 37.5319V27.7927V18.0537L8.18175 17.431C9.31715 16.7659 12.7507 14.7874 15.8526 13.0108C16.8955 12.4135 18.1107 11.7056 18.5532 11.4376C18.9956 11.1698 20.4284 10.3434 21.7372 9.60123L24.117 8.25197L25.4721 9.05203C26.2174 9.49206 27.4996 10.2381 28.3213 10.71C29.1429 11.1818 30.5133 11.9715 31.3666 12.4649C34.6018 14.3352 35.9746 15.1266 38.1939 16.4007C39.4523 17.1232 40.5989 17.791 40.742 17.8847L41.0022 18.0552L41.4419 17.7699C41.6838 17.6129 42.7349 16.9965 43.7778 16.4C44.8207 15.8035 46.2334 14.9915 46.917 14.5955L48.1601 13.8756L47.7789 13.6433C47.5693 13.5154 46.3635 12.8155 45.0994 12.088C43.8353 11.3603 41.8185 10.1985 40.6175 9.50596C39.4166 8.81346 37.7101 7.83297 36.8252 7.3271C35.9404 6.82123 34.9837 6.26411 34.6992 6.08897C34.4148 5.91395 33.9494 5.64182 33.665 5.48438C32.8904 5.05562 30.3 3.57581 30.1025 3.44917C29.5093 3.06902 24.1143 -0.00160823 24.0425 6.31997e-07C23.994 0.0010349 23.7992 0.0967629 23.6096 0.212601ZM24.1154 10.3912L9.1168 19.0179V36.4672L24.0693 45.079L38.9792 36.4129L34.6455 33.8991L24.0812 39.9727C24.0812 39.9727 15.9852 35.3008 14.6172 34.5045L13.5542 33.8856L13.5562 27.773L13.5582 21.6602L14.2744 21.24C14.6683 21.0089 16.0508 20.2118 17.3465 19.4687C21.1063 17.3124 24.1267 15.4839 24.1267 15.4839L24.1154 10.3912ZM15.5078 27.7331V32.5993L15.7089 32.7733C15.8195 32.8689 16.815 33.4626 17.9211 34.0925C19.0272 34.7223 20.8542 35.7679 21.9812 36.4159L24.0302 37.594L24.2118 37.5243C24.5007 37.4134 32.5335 32.6664 32.5335 32.6664L31.314 31.9536L30.0943 31.2408L29.3227 31.6704C28.8983 31.9067 27.5479 32.6853 26.3218 33.4004L24.0925 34.7007L23.4488 34.3335C20.7844 32.8129 18.2998 31.3623 18.1797 31.2574L18.036 31.1319V27.7101V24.2882L17.5476 24.0173C17.2791 23.8683 16.7308 23.5485 16.3293 23.3067C15.9277 23.0648 15.5787 22.8669 15.5536 22.8669C15.5284 22.8669 15.5078 25.0566 15.5078 27.7331Z" fill="white"/>
</svg>
