<svg width="18" height="18" viewBox="0 0 18 18" fill="none" xmlns="http://www.w3.org/2000/svg">
<path d="M16.6043 8.52632V17.5263C16.6043 17.7878 16.4039 18 16.1569 18H8.10534V10.8947C8.10534 10.6333 7.90495 10.4211 7.65803 10.4211H4.07954C3.83263 10.4211 3.63223 10.6333 3.63223 10.8947V18H1.84299C1.59607 18 1.39567 17.7878 1.39567 17.5263V8.52632H1.54776C2.20083 8.52632 2.80023 8.18763 3.1715 7.65C3.18045 7.65947 3.18716 7.67368 3.19387 7.68553C3.57855 8.21842 4.16229 8.52632 4.79748 8.52632H5.36109C6.03877 8.52632 6.6404 8.17105 7.0072 7.62158C7.03627 7.65947 7.06535 7.69974 7.09666 7.73763C7.51937 8.23974 8.12771 8.52632 8.76289 8.52632H9.23704C9.87222 8.52632 10.4806 8.23974 10.9033 7.73763C10.9346 7.69974 10.9637 7.65947 10.9927 7.62158C11.3595 8.17105 11.9612 8.52632 12.6388 8.52632H13.2025C13.8376 8.52632 14.4214 8.21842 14.8061 7.68553C14.8128 7.67368 14.8195 7.65947 14.8284 7.65C15.1997 8.18763 15.7991 8.52632 16.4522 8.52632H16.6043ZM14.3677 14.6842V10.8947C14.3677 10.6333 14.1673 10.4211 13.9204 10.4211H10.7892C10.5423 10.4211 10.3419 10.6333 10.3419 10.8947V14.6842C10.3419 14.9457 10.5423 15.1579 10.7892 15.1579H13.9204C14.1673 15.1579 14.3677 14.9457 14.3677 14.6842ZM3.16233 0C2.80873 0 2.48846 0.2205 2.34487 0.5625L0.0984717 5.91395C-0.063455 6.30118 -0.0243152 6.72632 0.205826 7.074C0.422325 7.40084 0.789344 7.57895 1.1662 7.57895H1.54776C2.04875 7.57895 2.49159 7.22132 2.62578 6.71211L3.66131 2.75921L4.38595 0H3.16233ZM5.31412 0L3.71946 6.07737C3.62552 6.43737 3.69485 6.81395 3.90733 7.11237C4.1198 7.40842 4.4441 7.57895 4.79748 7.57895H5.36109C5.93365 7.57895 6.41003 7.12658 6.47266 6.525L7.15928 0H5.31412ZM9.94156 0H8.05838L7.42767 6.00158C7.38741 6.40184 7.50818 6.80447 7.76315 7.10526C8.02036 7.41079 8.37597 7.57895 8.76289 7.57895H9.23704C9.62397 7.57895 9.97958 7.41079 10.2368 7.10526C10.4918 6.80447 10.6125 6.40184 10.5723 6.00158L9.94156 0ZM12.6858 0H10.8407L11.5273 6.525C11.5899 7.12658 12.0663 7.57895 12.6388 7.57895H13.2025C13.5558 7.57895 13.8801 7.40842 14.0926 7.11237C14.3051 6.81395 14.3744 6.43737 14.2805 6.07737L12.6858 0ZM15.6551 0.5625C15.5115 0.2205 15.191 0 14.8376 0H13.614L14.3386 2.75921L15.3742 6.71211C15.5083 7.22132 15.9512 7.57895 16.4522 7.57895H16.8337C17.2108 7.57895 17.5778 7.40084 17.7941 7.074C18.0245 6.72632 18.0634 6.30095 17.9015 5.91395L15.6551 0.5625Z" fill="white"/>
</svg>
